<svg
  xml:space="preserve"
  viewBox="0 0 100 100"
  y="0px"
  x="0px"
  xmlns:xlink="http://www.w3.org/1999/xlink"
  xmlns="http://www.w3.org/2000/svg"
  version="1.1"
  width="200px"
  height="200px"
>
  <g
    class="ldl-scale"
    style="transform-origin: 50% 50%; transform: rotate(0deg) scale(0.8, 0.8)"
  >
    <g class="ldl-ani" style="transform-origin: 50px 50px">
      <g class="ldl-layer">
        <g
          class="ldl-ani"
          style="
            transform-origin: 50px 50px;
            transform: matrix(1, 0, 0, 1, 0, 0);
            animation: 1.11111s linear -0.740741s infinite normal forwards running
              bounce;
          "
        >
          <g>
            <g class="ldl-layer">
              <g class="ldl-ani" style="transform-origin: 50px 50px">
                <circle
                  r="7.3"
                  cy="41.6"
                  cx="39.8"
                  fill="#E0E0E0"
                  style="fill: rgb(147, 219, 233)"
                ></circle>
              </g>
            </g>
            <g class="ldl-layer">
              <g class="ldl-ani" style="transform-origin: 50px 50px">
                <circle
                  r="5.8"
                  cy="32"
                  cx="34"
                  fill="#E0E0E0"
                  style="fill: rgb(147, 219, 233)"
                ></circle>
              </g>
            </g>
            <g class="ldl-layer">
              <g class="ldl-ani" style="transform-origin: 50px 50px">
                <circle
                  r="11.5"
                  cy="26.3"
                  cx="44"
                  fill="#E0E0E0"
                  style="fill: rgb(147, 219, 233)"
                ></circle>
              </g>
            </g>
            <g class="ldl-layer">
              <g class="ldl-ani" style="transform-origin: 50px 50px">
                <circle
                  r="10.8"
                  cy="21.2"
                  cx="55.5"
                  fill="#E0E0E0"
                  style="fill: rgb(147, 219, 233)"
                ></circle>
              </g>
            </g>
            <g class="ldl-layer">
              <g class="ldl-ani" style="transform-origin: 50px 50px">
                <circle
                  r="6.6"
                  cy="11.6"
                  cx="62.3"
                  fill="#E0E0E0"
                  style="fill: rgb(147, 219, 233)"
                ></circle>
              </g>
            </g>
            <g class="ldl-layer">
              <g class="ldl-ani" style="transform-origin: 50px 50px">
                <circle
                  r="11.5"
                  cy="23.1"
                  cx="72.3"
                  fill="#E0E0E0"
                  style="fill: rgb(147, 219, 233)"
                ></circle>
              </g>
            </g>
            <g class="ldl-layer">
              <g class="ldl-ani" style="transform-origin: 50px 50px">
                <circle
                  r="4"
                  cy="30.6"
                  cx="63"
                  fill="#E0E0E0"
                  style="fill: rgb(147, 219, 233)"
                ></circle>
              </g>
            </g>
          </g>
        </g>
      </g>
      <g class="ldl-layer">
        <g
          class="ldl-ani"
          style="
            transform-origin: 50px 50px;
            transform: matrix(1, 0, 0, 1, 0, 0);
            animation: 1.11111s linear -0.925926s infinite normal forwards running
              bounce;
          "
        >
          <path
            d="M84,95H43.3v-1.2c0-3.2,0.5-6.5,1.6-9.5l1.3-3.7c3.1-8.9,5.2-17.3,5.2-30.1v0h24.6v0c0,12.8,2,21.2,5.2,30.1 l1.3,3.7c1.1,3,1.6,6.2,1.6,9.5V95z"
            fill="#333333"
            style="fill: rgb(59, 67, 104)"
          ></path>
        </g>
      </g>
      <g class="ldl-layer">
        <g
          class="ldl-ani"
          style="
            transform-origin: 50px 50px;
            transform: matrix(1, 0, 0, 1, 0, 0);
            animation: 1.11111s linear -1.11111s infinite normal forwards running
              bounce;
          "
        >
          <g>
            <g class="ldl-layer">
              <g class="ldl-ani" style="transform-origin: 50px 50px">
                <path
                  d="M65,95H16v-1.4c0-3.9,0.7-7.8,1.9-11.4l1.6-4.4C23.3,67,25.7,57,25.7,41.5v0h29.6v0 c0,15.4,2.4,25.5,6.2,36.2l1.6,4.4c1.3,3.6,1.9,7.5,1.9,11.4V95z"
                  fill="#666666"
                  style="fill: rgb(94, 111, 163)"
                ></path>
              </g>
            </g>
            <g class="ldl-layer">
              <g class="ldl-ani" style="transform-origin: 50px 50px">
                <path
                  d="M43,66.8l3.8-6.5L46.3,60c-1.7-1-3.7-1.5-5.7-1.5s-4,0.5-5.7,1.5l-0.5,0.3l3.8,6.5c0.7-0.5,1.5-0.9,2.5-0.9 S42.3,66.2,43,66.8z"
                  fill="#FBB03B"
                  style="fill: rgb(104, 156, 197)"
                ></path>
              </g>
            </g>
            <g class="ldl-layer">
              <g class="ldl-ani" style="transform-origin: 50px 50px">
                <path
                  d="M44.5,69.3c0,0.2,0,0.4,0,0.6c0,1.7-1.1,3.1-2.5,3.7l3.8,6.5l0.5-0.3c3.5-2,5.7-5.8,5.7-9.9v-0.6H44.5z"
                  fill="#FBB03B"
                  style="fill: rgb(104, 156, 197)"
                ></path>
              </g>
            </g>
            <g class="ldl-layer">
              <g class="ldl-ani" style="transform-origin: 50px 50px">
                <path
                  d="M36.5,69.9c0-0.2,0-0.4,0-0.6h-7.5v0.6c0,4.1,2.2,7.9,5.7,9.9l0.5,0.3l3.8-6.5C37.6,73,36.5,71.6,36.5,69.9 z"
                  fill="#FBB03B"
                  style="fill: rgb(104, 156, 197)"
                ></path>
              </g>
            </g>
            <g class="ldl-layer">
              <g class="ldl-ani" style="transform-origin: 50px 50px">
                <path
                  d="M43.2,69.3c-0.1-0.6-0.4-1.1-0.8-1.4c-0.5-0.4-1.1-0.7-1.8-0.7s-1.4,0.3-1.8,0.7c-0.4,0.4-0.7,0.9-0.8,1.4 c0,0.2-0.1,0.4-0.1,0.6c0,1.2,0.8,2.3,1.9,2.6c0.3,0.1,0.5,0.1,0.8,0.1s0.6,0,0.8-0.1c1.1-0.4,1.9-1.4,1.9-2.6 C43.3,69.7,43.3,69.5,43.2,69.3z"
                  fill="#FBB03B"
                  style="fill: rgb(104, 156, 197)"
                ></path>
              </g>
            </g>
          </g>
        </g>
      </g>
    </g>
  </g>
</svg>
