<svg
  xml:space="preserve"
  viewBox="0 0 100 100"
  y="0"
  x="0"
  xmlns="http://www.w3.org/2000/svg"
  version="1.1"
  width="200px"
  height="200px"
>
  <g class="ldl-scale">
    <g class="ldl-ani">
      <g class="ldl-layer">
        <g
          class="ldl-ani"
          style="
            transform-origin: 50px 50px;
            transform: rotate(0deg);
            animation: 2.94118s linear -1.96078s infinite normal forwards running
              loading-spin;
          "
        >
          <path
            fill="#e15c64"
            d="M89.9 53.2c.1-1 .1-2.1.1-3.2s-.1-2.1-.1-3.2l-9.3-1.9c-.3-2-.8-3.9-1.5-5.7l7.1-6.3c-.9-1.9-2-3.8-3.2-5.5l-9 3c-1.3-1.5-2.7-2.9-4.2-4.2l3-9c-1.7-1.2-3.6-2.3-5.5-3.2l-6.4 7c-1.8-.7-3.8-1.2-5.7-1.5l-1.9-9.3c-1-.1-2.1-.1-3.2-.1s-2.1.1-3.2.1L45 19.5c-2 .3-3.9.8-5.7 1.5L33 13.9c-1.9.9-3.8 2-5.5 3.2l3 9c-1.5 1.3-2.9 2.7-4.2 4.2l-9-3c-1.2 1.7-2.3 3.6-3.2 5.5l7.1 6.3c-.7 1.8-1.2 3.8-1.5 5.7l-9.3 1.9c-.1 1-.1 2.1-.1 3.2s.1 2.1.1 3.2l9.3 1.9c.3 2 .8 3.9 1.5 5.7L14.1 67c.9 1.9 2 3.8 3.2 5.5l9-3c1.3 1.5 2.7 2.9 4.2 4.2l-3 9c1.7 1.2 3.6 2.3 5.5 3.2l6.3-7.1c1.8.7 3.8 1.2 5.7 1.5l1.9 9.3c1 .1 2.1.1 3.2.1s2.1-.1 3.2-.1l1.9-9.3c2-.3 3.9-.8 5.7-1.5l6.3 7.1c1.9-.9 3.8-2 5.5-3.2l-3-9c1.5-1.3 2.9-2.7 4.2-4.2l9 3c1.2-1.7 2.3-3.6 3.2-5.5L79 60.9c.7-1.8 1.2-3.8 1.5-5.7l9.4-2zM50 70c-11 0-20-9-20-20s9-20 20-20 20 9 20 20-9 20-20 20z"
            style="fill: rgb(94, 111, 163)"
          ></path>
        </g>
      </g>
      <g class="ldl-layer">
        <g
          class="ldl-ani"
          style="
            transform-origin: 50px 50px;
            transform: rotate(0deg);
            animation: 2.94118s linear -2.45098s infinite normal forwards running
              loading-spin;
          "
        >
          <path
            fill="#f47e5f"
            d="M77.5 44.9c-.1-.7-.3-1.4-.5-2.2s-.4-1.4-.7-2.1l-6.6.4c-.6-1.3-1.3-2.5-2.1-3.6l3.6-5.6c-1-1.1-2-2.2-3.1-3.1l-5.6 3.6c-1.1-.8-2.3-1.5-3.6-2.1l.4-6.6c-1.4-.5-2.8-.9-4.3-1.2l-3 5.9c-1.4-.1-2.7-.1-4.1 0l-3-5.9c-.7.1-1.4.3-2.2.5-.7.2-1.4.4-2.1.7l.4 6.6c-1.3.6-2.5 1.3-3.6 2.1l-5.6-3.6c-1.1 1-2.2 2-3.1 3.1l3.6 5.6c-.8 1.1-1.5 2.3-2.1 3.6l-6.6-.4c-.5 1.4-.9 2.8-1.2 4.3l5.9 3c-.1 1.4-.1 2.7 0 4.1l-5.9 3c.1.7.3 1.4.5 2.2.2.7.4 1.4.7 2.1l6.6-.4c.6 1.3 1.3 2.5 2.1 3.6l-3.6 5.6c1 1.1 2 2.2 3.1 3.1l5.6-3.6c1.1.8 2.3 1.5 3.6 2.1l-.4 6.6c1.4.5 2.8.9 4.3 1.2l3-5.9c1.4.1 2.7.1 4.1 0l3 5.9c.7-.1 1.4-.3 2.2-.5s1.4-.4 2.1-.7l-.3-6.6c1.3-.6 2.5-1.3 3.6-2.1l5.6 3.6c1.1-1 2.2-2 3.1-3.1l-3.6-5.6c.8-1.1 1.5-2.3 2.1-3.6l6.6.4c.5-1.4.9-2.8 1.2-4.3l-5.9-3c.1-1.4.1-2.7 0-4.1l5.8-3zM53.6 63.5c-7.5 2-15.1-2.4-17.1-9.9-2-7.5 2.4-15.1 9.9-17.1s15.1 2.4 17.1 9.9c2 7.4-2.4 15.1-9.9 17.1z"
            style="fill: rgb(104, 156, 197)"
          ></path>
        </g>
      </g>
      <g class="ldl-layer">
        <g
          class="ldl-ani"
          style="
            transform-origin: 50px 50px;
            transform: rotate(0deg);
            animation: 2.94118s linear -2.94118s infinite normal forwards running
              loading-spin;
          "
        >
          <path
            fill="#f7b26a"
            d="M68.4 41.3c-.2-.5-.5-1-.7-1.4-.3-.5-.6-.9-.9-1.4L62.2 40c-.6-.8-1.4-1.5-2.1-2.1l1.5-4.6c-.9-.6-1.8-1.1-2.8-1.6l-3.2 3.6c-.9-.4-1.9-.6-2.9-.8l-1-4.7c-1.1-.1-2.1-.1-3.2 0l-1 4.7c-1 .2-2 .4-2.9.8l-3.2-3.6c-.5.2-1 .5-1.4.7-.5.3-.9.6-1.4.9l1.5 4.6c-.8.6-1.5 1.4-2.1 2.1l-4.6-1.5c-.6.9-1.1 1.8-1.6 2.8l3.6 3.2c-.4.9-.6 1.9-.8 2.9l-4.7 1c-.1 1.1-.1 2.1 0 3.2l4.7 1c.2 1 .4 2 .8 2.9l-3.6 3.2c.2.5.5 1 .7 1.4.3.5.6.9.9 1.4L38 60c.6.8 1.4 1.5 2.1 2.1l-1.5 4.6c.9.6 1.8 1.1 2.8 1.6l3.2-3.6c.9.4 1.9.6 2.9.8l1 4.7c1.1.1 2.1.1 3.2 0l1-4.7c1-.2 2-.4 2.9-.8l3.2 3.6c.5-.2 1-.5 1.4-.7.5-.3.9-.6 1.4-.9L60 62.2c.8-.6 1.5-1.4 2.1-2.1l4.6 1.5c.6-.9 1.1-1.8 1.6-2.8l-3.6-3.2c.4-.9.6-1.9.8-2.9l4.7-1c.1-1.1.1-2.1 0-3.2l-4.7-1c-.2-1-.4-2-.8-2.9l3.7-3.3zM55.1 58.8c-4.9 2.8-11.1 1.1-13.9-3.7-2.8-4.9-1.1-11.1 3.7-13.9s11.1-1.1 13.9 3.7c2.8 4.9 1.1 11.1-3.7 13.9z"
            style="fill: rgb(147, 219, 233)"
          ></path>
        </g>
      </g>
    </g>
  </g>
</svg>
