<?xml version="1.0" encoding="utf-8"?>
<!-- Generator: Adobe Illustrator 25.0.1, SVG Export Plug-In . SVG Version: 6.00 Build 0)  -->
<svg version="1.0" id="katman_1" xmlns="http://www.w3.org/2000/svg" xmlns:xlink="http://www.w3.org/1999/xlink" x="0px" y="0px"
	 viewBox="0 0 800 600" style="enable-background:new 0 0 800 600;" xml:space="preserve">
<style type="text/css">
	.st0{fill:#E17726;stroke:#E17726;stroke-width:3.5166;stroke-linecap:round;stroke-linejoin:round;}
	.st1{fill:#E27625;stroke:#E27625;stroke-width:3.5166;stroke-linecap:round;stroke-linejoin:round;}
	.st2{fill:#D5BFB2;stroke:#D5BFB2;stroke-width:3.5166;stroke-linecap:round;stroke-linejoin:round;}
	.st3{fill:#233447;stroke:#233447;stroke-width:3.5166;stroke-linecap:round;stroke-linejoin:round;}
	.st4{fill:#CC6228;stroke:#CC6228;stroke-width:3.5166;stroke-linecap:round;stroke-linejoin:round;}
	.st5{fill:#E27525;stroke:#E27525;stroke-width:3.5166;stroke-linecap:round;stroke-linejoin:round;}
	.st6{fill:#F5841F;stroke:#F5841F;stroke-width:3.5166;stroke-linecap:round;stroke-linejoin:round;}
	.st7{fill:#C0AC9D;stroke:#C0AC9D;stroke-width:3.5166;stroke-linecap:round;stroke-linejoin:round;}
	.st8{fill:#161616;stroke:#161616;stroke-width:3.5166;stroke-linecap:round;stroke-linejoin:round;}
	.st9{fill:#763E1A;stroke:#763E1A;stroke-width:3.5166;stroke-linecap:round;stroke-linejoin:round;}
</style>
<g>
	<path class="st0" d="M613.1,81.3L428.3,218l34.4-80.6L613.1,81.3z"/>
	<path class="st1" d="M186.9,81.3l183.1,138l-32.7-81.8L186.9,81.3z"/>
	<path class="st1" d="M546.6,398.2l-49.2,75.1l105.3,29l30.2-102.4L546.6,398.2z"/>
	<path class="st1" d="M167.4,399.9l30,102.4l105.1-29l-49-75.1L167.4,399.9z"/>
	<path class="st1" d="M296.8,271.4l-29.2,44.1l104.2,4.7l-3.5-112.1L296.8,271.4z"/>
	<path class="st1" d="M503.2,271.4l-72.5-64.5l-2.4,113.4l104.2-4.7L503.2,271.4z"/>
	<path class="st1" d="M302.4,473.3l63-30.4l-54.3-42.3L302.4,473.3z"/>
	<path class="st1" d="M434.5,442.9l62.9,30.4l-8.6-72.7L434.5,442.9z"/>
	<path class="st2" d="M497.4,473.3l-62.9-30.4l5.1,40.8l-0.5,17.3L497.4,473.3z"/>
	<path class="st2" d="M302.4,473.3l58.5,27.7l-0.4-17.3l4.9-40.8L302.4,473.3z"/>
	<path class="st3" d="M362,373.6l-52.3-15.3l36.9-17L362,373.6z"/>
	<path class="st3" d="M438,373.6l15.4-32.3l37.1,17L438,373.6z"/>
	<path class="st4" d="M302.4,473.3l9.1-75.1l-58.1,1.6L302.4,473.3z"/>
	<path class="st4" d="M488.4,398.2l9,75.1l49.2-73.5L488.4,398.2z"/>
	<path class="st4" d="M532.5,315.5l-104.2,4.7l9.7,53.4l15.4-32.3l37.1,17L532.5,315.5z"/>
	<path class="st4" d="M309.7,358.3l36.9-17l15.4,32.3l9.7-53.4l-104.2-4.7L309.7,358.3z"/>
	<path class="st5" d="M267.5,315.5l43.7,85.1l-1.5-42.3L267.5,315.5z"/>
	<path class="st5" d="M490.5,358.3l-1.6,42.3l43.7-85.1L490.5,358.3z"/>
	<path class="st5" d="M371.7,320.2l-9.7,53.4l12.2,63.1l2.7-83.1L371.7,320.2z"/>
	<path class="st5" d="M428.3,320.2l-5.1,33.2l2.6,83.3l12.2-63.1L428.3,320.2z"/>
	<path class="st6" d="M438,373.6l-12.2,63.1l8.8,6.2l54.3-42.3l1.6-42.3L438,373.6z"/>
	<path class="st6" d="M309.7,358.3l1.5,42.3l54.3,42.3l8.8-6.2L362,373.6L309.7,358.3z"/>
	<path class="st7" d="M439.1,501l0.5-17.3l-4.8-4h-69.8l-4.6,4l0.4,17.3l-58.5-27.7l20.5,16.8l41.5,28.6h71.1l41.7-28.6l20.3-16.8
		L439.1,501z"/>
	<path class="st8" d="M434.5,442.9l-8.8-6.2h-51.5l-8.8,6.2l-4.9,40.8l4.6-4h69.8l4.8,4L434.5,442.9z"/>
	<path class="st9" d="M620.9,226.9l15.5-75.5l-23.4-70.2L434.5,213.4l68.7,58l97,28.3l21.4-25l-9.3-6.7l14.8-13.5l-11.3-8.7
		l14.8-11.3L620.9,226.9z"/>
	<path class="st9" d="M163.5,151.5l15.7,75.5l-10.1,7.5l15,11.3l-11.3,8.7l14.8,13.5l-9.3,6.7l21.4,25l97-28.3l68.7-58L186.9,81.3
		L163.5,151.5z"/>
	<path class="st6" d="M600.3,299.6l-97-28.3l29.2,44.1l-43.7,85.1l57.7-0.7h86.3L600.3,299.6z"/>
	<path class="st6" d="M296.8,271.4l-97,28.3l-32.3,100.2h86.1l57.7,0.7l-43.7-85.1L296.8,271.4z"/>
	<path class="st6" d="M428.3,320.2l6.2-106.8l28.1-76H337.3l28.1,76l6.2,106.8l2.4,33.5l0.2,82.9h51.5l0.2-82.9L428.3,320.2z"/>
</g>
</svg>
